<svg width="148" height="148" viewBox="0 0 148 148" fill="none" xmlns="http://www.w3.org/2000/svg">
<g filter="url(#filter0_d_209_54)">
<circle cx="74" cy="74" r="57" fill="white"/>
</g>
<path fillRule="evenodd" clipRule="evenodd" d="M56.3665 84.1743L61.222 92.7535L61.8084 92.415C62.0115 92.298 62.2528 92.2664 62.4792 92.3271L75.4309 95.7948C77.3338 96.3048 78.4181 95.97 80.0999 95.1129L97.8923 84.157C98.7892 83.6048 98.9042 82.0934 98.3727 81.2373C97.1964 79.3425 93.9266 80.9298 92.5753 81.7169L82.7363 87.4475C80.5168 88.74 78.8588 88.4977 76.6062 88.1314L69.9451 86.3787C69.7187 86.3164 69.526 86.1672 69.4092 85.9635C69.2924 85.7598 69.2608 85.5182 69.3214 85.2913C69.3821 85.0645 69.5299 84.8708 69.7328 84.7525C69.9356 84.6342 70.177 84.601 70.4043 84.66C72.5313 85.23 74.6398 85.915 76.7962 86.361C77.883 86.4939 78.7793 86.1534 79.081 85.0272C79.3543 84.0069 78.7107 83.0456 77.7474 82.7116C74.7916 82.1705 71.9238 81.1337 69.6685 80.3181C66.4052 79.138 65.5363 78.8648 62.3187 80.7276L56.3665 84.1743ZM80.3942 55.5725C78.9012 55.5725 77.4418 56.0154 76.2007 56.8453C74.9597 57.6752 73.9927 58.8546 73.4223 60.2343C72.8519 61.6141 72.7037 63.132 72.9965 64.596C73.2893 66.06 74.0099 67.4042 75.0671 68.4584C75.256 67.1806 75.8979 66.0132 76.8758 65.1692C77.8537 64.3253 79.1024 63.8609 80.3941 63.8609C81.6858 63.8609 82.9345 64.3253 83.9124 65.1692C84.8903 66.0132 85.5323 67.1806 85.7212 68.4584C86.7783 67.4042 87.4989 66.06 87.7917 64.596C88.0845 63.1321 87.9363 61.6142 87.3659 60.2344C86.7956 58.8547 85.8287 57.6753 84.5876 56.8454C83.3466 56.0155 81.8872 55.5725 80.3942 55.5725ZM80.3942 62.7469C79.8557 62.7469 79.3293 62.5872 78.8816 62.2881C78.4339 61.9889 78.0849 61.5637 77.8788 61.0662C77.6728 60.5687 77.6188 60.0212 77.7239 59.4931C77.829 58.9649 78.0883 58.4798 78.4691 58.0991C78.8498 57.7183 79.335 57.459 79.8631 57.3539C80.3913 57.2489 80.9387 57.3028 81.4362 57.5089C81.9337 57.715 82.3589 58.064 82.6581 58.5117C82.9572 58.9595 83.1169 59.4859 83.1169 60.0244C83.1169 60.3819 83.0464 60.736 82.9096 61.0663C82.7728 61.3966 82.5722 61.6967 82.3194 61.9496C82.0666 62.2024 81.7664 62.4029 81.4361 62.5397C81.1058 62.6765 80.7518 62.7469 80.3942 62.7469ZM61.3737 96.6375L53.5678 82.845C53.385 82.5242 53.0827 82.2889 52.727 82.1903C52.3712 82.0916 51.9908 82.1378 51.669 82.3187L49.0139 83.8217C48.6932 84.0044 48.4578 84.3067 48.3591 84.6625C48.2605 85.0183 48.3067 85.3986 48.4876 85.7205L56.2935 99.513C56.4762 99.8338 56.7785 100.069 57.1343 100.168C57.4901 100.266 57.8704 100.22 58.1923 100.039L60.8475 98.5365C61.1683 98.3537 61.4037 98.0514 61.5023 97.6956C61.6009 97.3398 61.5547 96.9594 61.3737 96.6375ZM52.0521 86.7885C51.8666 86.8156 51.6772 86.7871 51.5079 86.7065C51.3385 86.626 51.1969 86.4971 51.1009 86.3361C51.0048 86.1751 50.9587 85.9892 50.9683 85.8019C50.9779 85.6147 51.0428 85.4345 51.1548 85.2841C51.2668 85.1338 51.4209 85.02 51.5975 84.9572C51.7742 84.8945 51.9655 84.8855 52.1473 84.9314C52.3291 84.9774 52.4931 85.0762 52.6187 85.2153C52.7443 85.3545 52.8259 85.5278 52.853 85.7134C52.871 85.8365 52.8646 85.9621 52.834 86.0828C52.8035 86.2034 52.7496 86.317 52.6752 86.4168C52.6008 86.5166 52.5075 86.6008 52.4006 86.6646C52.2937 86.7284 52.1753 86.7705 52.0521 86.7885ZM94.0228 59.8642C93.6793 58.4217 93.1078 57.0433 92.33 55.7808L93.5079 53.129L90.3818 50.0025L87.7291 51.1807C86.4669 50.4032 85.0889 49.832 83.6469 49.4885L82.6049 46.7812H78.1835L77.1414 49.4883C75.6994 49.8318 74.3214 50.403 73.0593 51.1805L70.4064 50.0025L67.28 53.1291L68.4581 55.7815C67.6805 57.0437 67.1093 58.4219 66.7659 59.8641L64.0593 60.906V65.3274L66.7657 66.3691C67.109 67.8116 67.6802 69.19 68.4578 70.4525L67.28 73.1043L70.4065 76.2308L73.0593 75.0526C74.3214 75.8301 75.6995 76.4014 77.1415 76.7448L78.1835 79.4518H82.605L83.6467 76.7454C85.0891 76.4021 86.4675 75.8309 87.73 75.0532L90.3818 76.2311L93.5083 73.1047L92.3302 70.4518C93.1076 69.1897 93.6789 67.8117 94.0223 66.3697L96.7293 65.3277V60.9059L94.0228 59.8642ZM80.3942 72.4424C78.5498 72.4424 76.7469 71.8955 75.2133 70.8708C73.6798 69.8461 72.4845 68.3897 71.7787 66.6857C71.0729 64.9817 70.8882 63.1066 71.248 61.2977C71.6078 59.4887 72.496 57.8271 73.8002 56.5229C75.1044 55.2187 76.766 54.3306 78.5749 53.9708C80.3839 53.6109 82.2589 53.7956 83.9629 54.5014C85.6669 55.2073 87.1233 56.4025 88.148 57.9361C89.1727 59.4696 89.7196 61.2726 89.7196 63.117C89.7194 65.5902 88.7368 67.962 86.988 69.7108C85.2392 71.4596 82.8674 72.4421 80.3942 72.4424Z" fill="#da2a2c"/>
<defs>
<filter id="filter0_d_209_54" x="0" y="0" width="148" height="148" filterUnits="userSpaceOnUse" color-interpolation-filters="sRGB">
<feFlood flood-opacity="0" result="BackgroundImageFix"/>
<feColorMatrix in="SourceAlpha" type="matrix" values="0 0 0 0 0 0 0 0 0 0 0 0 0 0 0 0 0 0 127 0" result="hardAlpha"/>
<feOffset/>
<feGaussianBlur stdDeviation="8.5"/>
<feComposite in2="hardAlpha" operator="out"/>
<feColorMatrix type="matrix" values="0 0 0 0 0 0 0 0 0 0 0 0 0 0 0 0 0 0 0.08 0"/>
<feBlend mode="normal" in2="BackgroundImageFix" result="effect1_dropShadow_209_54"/>
<feBlend mode="normal" in="SourceGraphic" in2="effect1_dropShadow_209_54" result="shape"/>
</filter>
</defs>
</svg>
