<svg width="150" height="150" viewBox="0 0 150 150" fill="none" xmlns="http://www.w3.org/2000/svg">
<g filter="url(#filter0_d_209_50)">
<circle cx="75" cy="75" r="57" fill="white"/>
</g>
<g clipPath="url(#clip0_209_50)">
<path d="M80.4032 74.7069C88.042 74.7069 94.2556 68.4922 94.2556 60.8534C94.2556 53.2147 88.042 47 80.4032 47C72.7645 47 66.5498 53.2147 66.5498 60.8534C66.5498 68.4922 72.7645 74.7069 80.4032 74.7069ZM78.7626 52.7105V52.3342C78.7626 51.4275 79.4965 50.6936 80.4032 50.6936C81.3089 50.6936 82.0439 51.4275 82.0439 52.3342V52.7127C83.9962 53.1316 85.4651 54.8706 85.4651 56.9466C85.4651 57.8522 84.7301 58.5872 83.8245 58.5872C82.9178 58.5872 82.1839 57.8522 82.1839 56.9466C82.1839 56.368 81.7125 55.8966 81.1339 55.8966H79.6628C79.0842 55.8966 78.6128 56.368 78.6128 56.9466C78.6128 57.278 78.7714 57.593 79.0382 57.7898L80.4032 58.8005L83.7195 61.2548C84.8089 62.0609 85.4651 63.3505 85.4739 64.7067V64.722C85.4815 65.8792 85.0386 66.9708 84.2248 67.7944C83.6211 68.4058 82.8664 68.8159 82.0439 68.9888V69.3727C82.0439 70.2794 81.3089 71.0133 80.4032 71.0133C79.4965 71.0133 78.7626 70.2794 78.7626 69.3727V68.9942C77.962 68.8236 77.2259 68.4298 76.6309 67.8414C75.8073 67.0288 75.3501 65.9438 75.3436 64.7866C75.3381 63.8809 76.0676 63.1416 76.9732 63.1361H76.9842C77.8854 63.1361 78.6193 63.8645 78.6248 64.7669C78.627 65.3331 79.0825 65.8103 79.6803 65.8103C80.5868 65.8048 80.2491 65.8068 81.1492 65.8016C81.7315 65.797 82.1971 65.3244 82.1926 64.7439V64.7286C82.1904 64.4005 82.0318 64.0877 81.7671 63.8919L80.4032 62.8823L77.0859 60.428C75.9878 59.6142 75.3315 58.3127 75.3315 56.9466C75.3315 54.8663 76.8048 53.1261 78.7626 52.7105Z" fill="#da2a2c"/>
<path d="M57.9577 82.5898C57.5371 81.8607 56.603 81.607 55.8694 82.0302L48.1521 86.485C47.4214 86.908 47.1707 87.8426 47.5925 88.5743L55.48 102.235C55.9022 102.966 56.8363 103.217 57.5683 102.795L65.2856 98.3391C66.0174 97.9171 66.2671 96.9825 65.8451 96.2508L57.9577 82.5898Z" fill="#da2a2c"/>
<path d="M102.177 79.8629C101.435 78.8315 99.9974 78.5985 98.9671 79.3412C95.8412 81.5932 89.8387 85.9179 89.3618 86.2624C89.142 86.4495 88.9112 86.619 88.6705 86.7688C87.7266 87.3628 86.6318 87.6799 85.4888 87.6799H77.6302C76.7246 87.6799 75.9896 86.946 75.9896 86.0393C75.9896 85.1315 76.7257 84.3987 77.6302 84.3987H86.0346C87.2695 84.3987 88.2582 83.3706 88.2068 82.1335C88.1587 80.9599 87.1568 80.0499 85.9821 80.0499H79.5848C79.1516 79.5917 78.677 79.1717 78.1684 78.7965C76.4194 77.507 74.2582 76.7446 71.9187 76.7446C67.7591 76.7446 63.6204 79.3653 61.9043 82.8631L68.6155 94.4863H81.2046C83.6765 94.4863 86.1112 93.8542 88.2538 92.6215C88.9965 92.1949 89.7916 91.682 90.6535 91.0629C94.2651 88.4685 101.649 83.0785 101.654 83.0753C102.687 82.3337 102.921 80.8943 102.177 79.8629Z" fill="#da2a2c"/>
</g>
<defs>
<filter id="filter0_d_209_50" x="0" y="0" width="150" height="150" filterUnits="userSpaceOnUse" color-interpolation-filters="sRGB">
<feFlood flood-opacity="0" result="BackgroundImageFix"/>
<feColorMatrix in="SourceAlpha" type="matrix" values="0 0 0 0 0 0 0 0 0 0 0 0 0 0 0 0 0 0 127 0" result="hardAlpha"/>
<feOffset/>
<feGaussianBlur stdDeviation="9"/>
<feComposite in2="hardAlpha" operator="out"/>
<feColorMatrix type="matrix" values="0 0 0 0 0 0 0 0 0 0 0 0 0 0 0 0 0 0 0.08 0"/>
<feBlend mode="normal" in2="BackgroundImageFix" result="effect1_dropShadow_209_50"/>
<feBlend mode="normal" in="SourceGraphic" in2="effect1_dropShadow_209_50" result="shape"/>
</filter>
<clipPath id="clip0_209_50">
<rect width="56" height="56" fill="white" transform="translate(47 47)"/>
</clipPath>
</defs>
</svg>
