<svg width="148" height="148" viewBox="0 0 148 148" fill="none" xmlns="http://www.w3.org/2000/svg">
<g filter="url(#filter0_d_209_53)">
<circle cx="74" cy="74" r="57" fill="white"/>
</g>
<g clipPath="url(#clip0_209_53)">
<path d="M86.1895 71.1602C86.1895 64.7143 80.9459 59.4707 74.5 59.4707C68.0541 59.4707 62.8105 64.7143 62.8105 71.1602C62.8105 77.6061 68.0541 82.8496 74.5 82.8496C80.9459 82.8496 86.1895 77.6061 86.1895 71.1602ZM66.6515 72.329L68.9893 69.9911L72.8302 73.7985L80.011 66.6513L82.3487 68.9891L72.8301 78.5411L66.6515 72.329Z" fill="#da2a2c"/>
<path d="M74.5 103L74.9676 102.866C75.9695 102.599 99.5488 95.3406 99.5488 54.4609V52.791H97.8789C86.7571 52.791 75.4353 46.5009 75.3016 46.4342L74.5 46L73.6984 46.4342C73.5647 46.5009 62.2429 52.791 51.1211 52.791H49.4512V54.4609C49.4512 95.3406 73.0305 102.599 74.0324 102.866L74.5 103ZM59.4707 71.1602C59.4707 62.8772 66.2173 56.1309 74.5 56.1309C82.7827 56.1309 89.5293 62.8772 89.5293 71.1602C89.5293 79.4429 82.7827 86.1895 74.5 86.1895C66.2173 86.1895 59.4707 79.4429 59.4707 71.1602Z" fill="#da2a2c"/>
</g>
<defs>
<filter id="filter0_d_209_53" x="0" y="0" width="148" height="148" filterUnits="userSpaceOnUse" color-interpolation-filters="sRGB">
<feFlood flood-opacity="0" result="BackgroundImageFix"/>
<feColorMatrix in="SourceAlpha" type="matrix" values="0 0 0 0 0 0 0 0 0 0 0 0 0 0 0 0 0 0 127 0" result="hardAlpha"/>
<feOffset/>
<feGaussianBlur stdDeviation="8.5"/>
<feComposite in2="hardAlpha" operator="out"/>
<feColorMatrix type="matrix" values="0 0 0 0 0 0 0 0 0 0 0 0 0 0 0 0 0 0 0.08 0"/>
<feBlend mode="normal" in2="BackgroundImageFix" result="effect1_dropShadow_209_53"/>
<feBlend mode="normal" in="SourceGraphic" in2="effect1_dropShadow_209_53" result="shape"/>
</filter>
<clipPath id="clip0_209_53">
<rect width="57" height="57" fill="white" transform="translate(46 46)"/>
</clipPath>
</defs>
</svg>
