<svg width="148" height="148" viewBox="0 0 148 148" fill="none" xmlns="http://www.w3.org/2000/svg">
<g filter="url(#filter0_d_209_51)">
<circle cx="74" cy="74" r="57" fill="white"/>
</g>
<g clipPath="url(#clip0_209_51)">
<path d="M75.9196 71.9253L53.873 62.7515C53.2951 62.5141 52.6342 62.7901 52.3968 63.368C52.3415 63.5026 52.3127 63.6467 52.312 63.7922V71.8348H56.5199C57.1446 71.8348 57.6511 72.3413 57.6511 72.966C57.6511 73.5907 57.1446 74.0972 56.5199 74.0972H50.7283C50.1036 74.098 49.5978 74.6052 49.5987 75.2299C49.5995 75.8535 50.1048 76.3587 50.7283 76.3595H52.312V77.3437H64.0988C64.7235 77.3437 65.23 77.8501 65.23 78.4748C65.23 79.0995 64.7235 79.606 64.0988 79.606H47.1312C46.5065 79.606 46 80.1125 46 80.7372C46 81.3619 46.5065 81.8684 47.1312 81.8684H52.3346V82.8525H58.6466C59.2712 82.8525 59.7777 83.359 59.7777 83.9837C59.7777 84.6084 59.2712 85.1148 58.6466 85.1148H49.1107C48.486 85.1148 47.9796 85.6213 47.9796 86.246C47.9796 86.8707 48.486 87.3772 49.1107 87.3772H52.312V89.2097C52.2722 89.6933 52.5453 90.1484 52.9907 90.3409L75.0486 99.4695C75.6265 99.7069 76.2874 99.4309 76.5248 98.853C76.5801 98.7184 76.6089 98.5743 76.6096 98.4288V72.966C76.6092 72.5121 76.3376 72.1023 75.9196 71.9253Z" fill="#da2a2c"/>
<path d="M102.491 62.8533C102.176 62.6436 101.777 62.6054 101.428 62.7515L79.3927 71.9253C78.9704 72.0988 78.6937 72.5093 78.6914 72.966V98.4288C78.6945 99.0535 79.2035 99.5574 79.8282 99.5543C79.9737 99.5536 80.1178 99.5248 80.2524 99.4695L102.299 90.3409C102.721 90.1674 102.998 89.7569 103 89.3002V63.7922C102.998 63.4138 102.807 63.0614 102.491 62.8533ZM84.1097 94.2887C84.103 94.7458 83.9699 95.1921 83.7251 95.5782C83.3202 96.2197 82.6056 96.5985 81.8474 96.5737C81.7081 96.5853 81.5681 96.5853 81.4289 96.5737C80.1602 96.2924 79.3596 95.0361 79.6409 93.7675C79.8 93.0495 80.2858 92.4471 80.9538 92.1395C81.238 92.0259 81.5414 91.9682 81.8474 91.9698C83.0969 91.9693 84.11 92.9819 84.1104 94.2314C84.1104 94.2505 84.1102 94.2696 84.1097 94.2887ZM88.9964 93.3837C88.7046 94.2772 87.8662 94.8775 86.9264 94.8656C86.6119 94.8667 86.3004 94.8052 86.0101 94.6846C85.1484 94.3045 84.6123 93.4305 84.664 92.4901C84.664 91.2406 85.6768 90.2278 86.9264 90.2278C88.1759 90.2278 89.1887 91.2406 89.1887 92.4901C89.1788 92.7971 89.1136 93.0998 88.9964 93.3837Z" fill="#da2a2c"/>
<path d="M100.115 58.4077L91.5749 55.0142L88.6451 56.2698L70.0599 64.2446L67.1641 65.4549L77.2202 69.6403C77.4989 69.7565 77.8125 69.7565 78.0912 69.6403L100.138 60.4664C100.548 60.2927 100.819 59.8941 100.828 59.4484C100.824 58.989 100.542 58.5777 100.115 58.4077Z" fill="#da2a2c"/>
<path d="M78.0801 49.528C77.808 49.418 77.5037 49.418 77.2317 49.528L55.185 58.4077C54.6072 58.6451 54.3311 59.306 54.5686 59.8839C54.6834 60.1636 54.9055 60.3856 55.185 60.5004H55.1737L64.3023 64.3238L67.1981 63.0795L85.7494 55.0821L88.6792 53.8152L78.0801 49.528Z" fill="#da2a2c"/>
<path d="M81.905 93.0571C81.8856 93.0561 81.8664 93.0557 81.847 93.0557C81.1918 93.0244 80.6353 93.5304 80.6042 94.1855C80.5729 94.8407 81.0788 95.3972 81.7339 95.4283C82.3892 95.4596 82.9457 94.9537 82.9768 94.2986C82.9776 94.2802 82.9781 94.2618 82.9782 94.2433C83.0095 93.6194 82.529 93.0884 81.905 93.0571Z" fill="#da2a2c"/>
<path d="M86.9839 91.3038C86.9645 91.3028 86.9453 91.3023 86.9259 91.3023C86.2707 91.2711 85.7141 91.777 85.683 92.4321C85.6518 93.0873 86.1577 93.6439 86.8128 93.675C87.468 93.7062 88.0245 93.2003 88.0557 92.5452C88.0565 92.5268 88.0569 92.5085 88.0571 92.4899C88.0883 91.8661 87.6079 91.335 86.9839 91.3038Z" fill="#da2a2c"/>
</g>
<defs>
<filter id="filter0_d_209_51" x="0" y="0" width="148" height="148" filterUnits="userSpaceOnUse" color-interpolation-filters="sRGB">
<feFlood flood-opacity="0" result="BackgroundImageFix"/>
<feColorMatrix in="SourceAlpha" type="matrix" values="0 0 0 0 0 0 0 0 0 0 0 0 0 0 0 0 0 0 127 0" result="hardAlpha"/>
<feOffset/>
<feGaussianBlur stdDeviation="8.5"/>
<feComposite in2="hardAlpha" operator="out"/>
<feColorMatrix type="matrix" values="0 0 0 0 0 0 0 0 0 0 0 0 0 0 0 0 0 0 0.08 0"/>
<feBlend mode="normal" in2="BackgroundImageFix" result="effect1_dropShadow_209_51"/>
<feBlend mode="normal" in="SourceGraphic" in2="effect1_dropShadow_209_51" result="shape"/>
</filter>
<clipPath id="clip0_209_51">
<rect width="57" height="57" fill="white" transform="translate(46 46)"/>
</clipPath>
</defs>
</svg>
